<?xml version="1.0" standalone="no"?>
<svg xmlns:xlink="http://www.w3.org/1999/xlink" id="wave" style="transform:rotate(180deg); transition: 0.3s" viewBox="0 0 1440 320" version="1.1" xmlns="http://www.w3.org/2000/svg"><defs><linearGradient id="sw-gradient-0" x1="0" x2="0" y1="1" y2="0"><stop stop-color="rgba(89, 23, 8, 1)" offset="0%"/><stop stop-color="rgba(255, 173, 152, 1)" offset="100%"/></linearGradient></defs><path style="transform:translate(0, 0px); opacity:1" fill="url(#sw-gradient-0)" d="M0,256L60,240C120,224,240,192,360,192C480,192,600,224,720,213.3C840,203,960,149,1080,138.7C1200,128,1320,160,1440,160C1560,160,1680,128,1800,122.7C1920,117,2040,139,2160,128C2280,117,2400,75,2520,64C2640,53,2760,75,2880,74.7C3000,75,3120,53,3240,58.7C3360,64,3480,96,3600,117.3C3720,139,3840,149,3960,144C4080,139,4200,117,4320,128C4440,139,4560,181,4680,176C4800,171,4920,117,5040,122.7C5160,128,5280,192,5400,186.7C5520,181,5640,107,5760,85.3C5880,64,6000,96,6120,96C6240,96,6360,64,6480,69.3C6600,75,6720,117,6840,133.3C6960,149,7080,139,7200,122.7C7320,107,7440,85,7560,74.7C7680,64,7800,64,7920,69.3C8040,75,8160,85,8280,90.7C8400,96,8520,96,8580,96L8640,96L8640,320L8580,320C8520,320,8400,320,8280,320C8160,320,8040,320,7920,320C7800,320,7680,320,7560,320C7440,320,7320,320,7200,320C7080,320,6960,320,6840,320C6720,320,6600,320,6480,320C6360,320,6240,320,6120,320C6000,320,5880,320,5760,320C5640,320,5520,320,5400,320C5280,320,5160,320,5040,320C4920,320,4800,320,4680,320C4560,320,4440,320,4320,320C4200,320,4080,320,3960,320C3840,320,3720,320,3600,320C3480,320,3360,320,3240,320C3120,320,3000,320,2880,320C2760,320,2640,320,2520,320C2400,320,2280,320,2160,320C2040,320,1920,320,1800,320C1680,320,1560,320,1440,320C1320,320,1200,320,1080,320C960,320,840,320,720,320C600,320,480,320,360,320C240,320,120,320,60,320L0,320Z"/><defs><linearGradient id="sw-gradient-1" x1="0" x2="0" y1="1" y2="0"><stop stop-color="rgba(89, 23, 8, 1)" offset="0%"/><stop stop-color="rgba(255, 173, 152, 1)" offset="100%"/></linearGradient></defs><path style="transform:translate(0, 50px); opacity:0.9" fill="url(#sw-gradient-1)" d="M0,256L60,261.3C120,267,240,277,360,250.7C480,224,600,160,720,122.7C840,85,960,75,1080,101.3C1200,128,1320,192,1440,181.3C1560,171,1680,85,1800,48C1920,11,2040,21,2160,26.7C2280,32,2400,32,2520,69.3C2640,107,2760,181,2880,213.3C3000,245,3120,235,3240,218.7C3360,203,3480,181,3600,149.3C3720,117,3840,75,3960,69.3C4080,64,4200,96,4320,133.3C4440,171,4560,213,4680,192C4800,171,4920,85,5040,58.7C5160,32,5280,64,5400,90.7C5520,117,5640,139,5760,122.7C5880,107,6000,53,6120,48C6240,43,6360,85,6480,106.7C6600,128,6720,128,6840,133.3C6960,139,7080,149,7200,133.3C7320,117,7440,75,7560,96C7680,117,7800,203,7920,245.3C8040,288,8160,288,8280,288C8400,288,8520,288,8580,288L8640,288L8640,320L8580,320C8520,320,8400,320,8280,320C8160,320,8040,320,7920,320C7800,320,7680,320,7560,320C7440,320,7320,320,7200,320C7080,320,6960,320,6840,320C6720,320,6600,320,6480,320C6360,320,6240,320,6120,320C6000,320,5880,320,5760,320C5640,320,5520,320,5400,320C5280,320,5160,320,5040,320C4920,320,4800,320,4680,320C4560,320,4440,320,4320,320C4200,320,4080,320,3960,320C3840,320,3720,320,3600,320C3480,320,3360,320,3240,320C3120,320,3000,320,2880,320C2760,320,2640,320,2520,320C2400,320,2280,320,2160,320C2040,320,1920,320,1800,320C1680,320,1560,320,1440,320C1320,320,1200,320,1080,320C960,320,840,320,720,320C600,320,480,320,360,320C240,320,120,320,60,320L0,320Z"/><defs><linearGradient id="sw-gradient-2" x1="0" x2="0" y1="1" y2="0"><stop stop-color="rgba(242, 227, 179, 0)" offset="0%"/><stop stop-color="rgba(242, 178, 121, 1)" offset="100%"/></linearGradient></defs><path style="transform:translate(0, 100px); opacity:0.8" fill="url(#sw-gradient-2)" d="M0,96L60,112C120,128,240,160,360,176C480,192,600,192,720,165.3C840,139,960,85,1080,53.3C1200,21,1320,11,1440,21.3C1560,32,1680,64,1800,64C1920,64,2040,32,2160,64C2280,96,2400,192,2520,218.7C2640,245,2760,203,2880,154.7C3000,107,3120,53,3240,42.7C3360,32,3480,64,3600,106.7C3720,149,3840,203,3960,229.3C4080,256,4200,256,4320,245.3C4440,235,4560,213,4680,218.7C4800,224,4920,256,5040,240C5160,224,5280,160,5400,128C5520,96,5640,96,5760,101.3C5880,107,6000,117,6120,138.7C6240,160,6360,192,6480,197.3C6600,203,6720,181,6840,149.3C6960,117,7080,75,7200,96C7320,117,7440,203,7560,213.3C7680,224,7800,160,7920,149.3C8040,139,8160,181,8280,165.3C8400,149,8520,75,8580,37.3L8640,0L8640,320L8580,320C8520,320,8400,320,8280,320C8160,320,8040,320,7920,320C7800,320,7680,320,7560,320C7440,320,7320,320,7200,320C7080,320,6960,320,6840,320C6720,320,6600,320,6480,320C6360,320,6240,320,6120,320C6000,320,5880,320,5760,320C5640,320,5520,320,5400,320C5280,320,5160,320,5040,320C4920,320,4800,320,4680,320C4560,320,4440,320,4320,320C4200,320,4080,320,3960,320C3840,320,3720,320,3600,320C3480,320,3360,320,3240,320C3120,320,3000,320,2880,320C2760,320,2640,320,2520,320C2400,320,2280,320,2160,320C2040,320,1920,320,1800,320C1680,320,1560,320,1440,320C1320,320,1200,320,1080,320C960,320,840,320,720,320C600,320,480,320,360,320C240,320,120,320,60,320L0,320Z"/></svg>